<?xml version="1.0" encoding="utf-8"?>
<!-- Generator: Adobe Illustrator 24.0.2, SVG Export Plug-In . SVG Version: 6.00 Build 0)  -->
<svg version="1.1" id="Layer_1" xmlns="http://www.w3.org/2000/svg" xmlns:xlink="http://www.w3.org/1999/xlink" x="0px" y="0px"
	 viewBox="0 0 200 200" enable-background="new 0 0 200 200" xml:space="preserve">
<path fill="#CACACA" d="M68.8-0.1c-6.3,0-12.4,0.8-18.3,2.4C44.7,4,39.2,6.3,34.1,9.3c-5.1,3-9.7,6.6-14,10.7
	c-4.2,4.2-7.8,8.8-10.7,13.9C6.5,39,4.1,44.5,2.4,50.4c-1.7,5.9-2.5,12-2.4,18.3C0,75,0.8,81.1,2.4,87c1.6,5.9,3.9,11.3,6.9,16.4
	c3,5.1,6.6,9.7,10.7,14c4.2,4.2,8.8,7.8,13.9,10.7c5.1,2.9,10.6,5.2,16.5,6.9c5.9,1.7,12,2.5,18.3,2.4c8.1,0,15.9-1.3,23.4-4
	c7.4-2.7,14.3-6.6,20.6-11.9l9.6,9.5c-1,0.9-1.9,1.9-2.4,2.9c-0.6,1-0.9,2.3-1,3.7c0,2.2,0.7,4.1,2.2,5.6l52.4,52.3
	c1.5,1.5,3.2,2.6,5.1,3.4c1.9,0.8,3.9,1.2,6,1.2c2.1,0,4-0.4,5.9-1.2c1.8-0.8,3.5-1.9,4.9-3.2c1.4-1.4,2.6-3,3.4-4.8
	s1.3-3.8,1.3-5.9c0-2.3-0.4-4.4-1.2-6.4c-0.8-2-2-3.9-3.6-5.6l-51.9-52c-1.5-1.5-3.4-2.2-5.6-2.2c-1.5,0-2.7,0.3-3.7,0.9
	c-1,0.6-2,1.4-2.9,2.5l-9.5-9.6c5.2-6.3,9.2-13.1,11.8-20.5c2.7-7.4,4-15.2,4.1-23.4c0-6.3-0.8-12.4-2.4-18.3
	c-1.6-5.9-3.9-11.3-6.9-16.4c-3-5.1-6.6-9.7-10.7-14s-8.8-7.8-13.9-10.7C98.5,6.4,93,4,87.1,2.3C81.1,0.7,75-0.2,68.8-0.1z
	 M184.6,190.7c-1.7,0-3.2-0.6-4.4-1.9L129,137.7l8.8-8.8l50.8,50.7c1.4,1.4,2.1,3,2.1,5c0,1.7-0.6,3.1-1.7,4.3
	C187.9,190,186.4,190.7,184.6,190.7z M68.8,128.1c-8.2,0-15.9-1.6-23.1-4.7c-7.2-3.1-13.5-7.4-18.9-12.7
	c-5.4-5.3-9.7-11.6-12.8-18.9c-3.1-7.2-4.7-14.9-4.7-23.2c0-8.2,1.6-15.9,4.7-23.1s7.4-13.5,12.7-18.9c5.3-5.4,11.6-9.7,18.9-12.8
	s14.9-4.7,23.2-4.7c8.2,0,15.9,1.6,23.1,4.7c7.2,3.1,13.5,7.4,18.9,12.7s9.7,11.6,12.8,18.9c3.1,7.2,4.7,14.9,4.7,23.2
	c0,8.2-1.6,15.9-4.7,23.1c-3.1,7.2-7.4,13.5-12.7,18.9c-5.3,5.4-11.6,9.7-18.9,12.8C84.7,126.5,77,128.1,68.8,128.1z M68.8,18.7
	c-1.3,0-2.4,0.5-3.3,1.4c-0.9,0.9-1.4,2-1.4,3.3c0,1.3,0.5,2.4,1.4,3.3c0.9,0.9,2,1.4,3.3,1.4c5.6,0,10.8,1.1,15.7,3.2
	c4.9,2.1,9.2,5,12.9,8.7c3.7,3.6,6.6,7.9,8.8,12.9c2.1,5,3.2,10.2,3.2,15.8c0,1.3,0.5,2.4,1.4,3.3c0.9,0.9,2,1.4,3.3,1.4
	c1.3,0,2.4-0.5,3.3-1.4c0.9-0.9,1.4-2,1.4-3.3c0-6.9-1.3-13.4-3.9-19.4c-2.6-6.1-6.2-11.4-10.6-15.9c-4.5-4.6-9.8-8.1-15.9-10.7
	C82.2,20,75.7,18.7,68.8,18.7z"/>
</svg>
